<svg width="266" height="239" viewBox="0 0 266 239" fill="none" xmlns="http://www.w3.org/2000/svg">
<g filter="url(#filter0_i_22295_41915)">
<path d="M69.7896 162.063C79.1264 176.056 78.0264 193.196 58.743 206.108C39.4605 219.014 10.17 215.73 3.36541 205.529C-0.639777 199.529 7.40234 197.46 10.9875 191.205C12.1704 189.145 11.8047 187.332 11.0234 187.835C5.80135 191.188 2.05671 193.595 2.3606 190.561C3.08883 183.289 11.6333 164.342 24.9467 155.431C44.2371 142.519 60.5563 148.224 69.7966 162.064L69.7896 162.063Z" fill="url(#paint0_linear_22295_41915)"/>
</g>
<path d="M43.9784 163.134C53.8516 157.212 61.4362 159.805 65.3084 166.296C69.1813 172.78 67.8901 180.7 58.0169 186.622C52.6077 189.868 50.0661 183.49 46.2299 182.079C39.8259 179.732 34.8819 184.347 32.1117 183.19C27.0125 181.06 34.1044 169.062 43.9784 163.134Z" fill="url(#paint1_linear_22295_41915)"/>
<path d="M42.5154 189.536C42.0601 191.891 38.5017 193.65 35.4374 194.104C32.3583 194.628 29.2392 193.667 27.9328 191.877C26.7145 190.188 30.082 188.166 34.5898 187.069C39.0906 185.971 42.9646 187.109 42.5154 189.536Z" fill="url(#paint2_linear_22295_41915)"/>
<path d="M135.63 204.16L149.98 194.561C163.632 185.425 172.09 170.298 172.734 153.869L172.864 150.545C172.985 147.369 169.467 145.396 166.825 147.157L127.085 173.755C125.302 174.951 124.819 177.367 126.012 179.152L128.374 182.691C128.678 183.152 128.883 183.666 128.971 184.21L132.038 202.605C132.32 204.274 134.225 205.099 135.63 204.16Z" fill="url(#paint3_linear_22295_41915)"/>
<path d="M169.234 147.932C168.665 147.868 168.102 148.012 167.603 148.34L127.863 174.938C126.727 175.694 126.426 177.24 127.18 178.371L129.542 181.91C129.962 182.541 130.24 183.234 130.362 183.981L133.429 202.376C133.511 202.848 133.894 203.104 134.238 203.143C134.456 203.167 134.653 203.118 134.845 202.99L149.195 193.391C162.424 184.535 170.696 169.743 171.318 153.824L171.448 150.5C171.509 149.005 170.349 148.064 169.233 147.939M169.391 146.533C171.293 146.746 172.945 148.368 172.856 150.558L172.726 153.882C172.082 170.311 163.624 185.438 149.972 194.574L135.623 204.173C135.139 204.496 134.593 204.613 134.073 204.555C133.09 204.445 132.213 203.714 132.03 202.618L128.963 184.223C128.875 183.679 128.67 183.165 128.366 182.704L126.004 179.165C124.811 177.38 125.294 174.964 127.077 173.768L166.817 147.17C167.632 146.621 168.534 146.437 169.391 146.533Z" fill="url(#paint4_linear_22295_41915)"/>
<path d="M96.8416 194.873L167.772 147.405C203.817 123.284 219.281 100.292 219.062 65.9778C219.047 63.6912 217.666 61.6217 215.562 60.7315C183.999 47.3913 156.873 52.9059 120.828 77.0271L49.898 124.495C31.1688 137.028 78.2654 207.31 96.8416 194.873Z" fill="url(#paint5_linear_22295_41915)"/>
<path d="M191.017 55.5014C169.995 53.1495 148.594 60.1518 121.621 78.2049L50.6909 125.673C45.9971 128.814 46.6284 136.131 47.9796 141.714C50.4032 151.687 57.266 164.67 65.8998 175.609C74.832 186.93 84.112 194.126 90.7241 194.865C92.8018 195.098 94.5501 194.717 96.0643 193.697L166.994 146.229C185.501 133.842 197.842 122.253 205.836 109.75C214.011 96.9619 217.77 83.053 217.661 65.985C217.649 64.2538 216.615 62.7001 215.026 62.0313C206.693 58.5079 198.844 56.3699 191.032 55.4959M191.189 54.0898C199.17 54.9827 207.217 57.1927 215.578 60.7262C217.681 61.6164 219.063 63.6859 219.077 65.9725C219.297 100.287 203.832 123.279 167.787 147.4L96.8572 194.868C95.0137 196.1 92.891 196.524 90.5746 196.265C69.5801 193.916 33.0435 135.779 49.9136 124.49L120.844 77.0217C147.347 59.2862 169.023 51.61 191.189 54.0898Z" fill="url(#paint6_linear_22295_41915)"/>
<path d="M116.764 191.571L201.668 134.754C244.812 105.875 263.327 78.3548 263.061 37.28C263.04 34.5442 261.392 32.0605 258.874 30.9958C221.095 15.0311 188.624 21.6277 145.481 50.5L60.5769 107.317C38.16 122.321 94.532 206.446 116.765 191.564L116.764 191.571Z" fill="url(#paint7_linear_22295_41915)"/>
<path d="M229.519 24.4586C216.547 23.0074 203.608 24.507 189.966 29.0458C176.738 33.4458 162.442 40.8513 146.263 51.6766L61.3596 108.494C55.6051 112.349 56.3535 121.224 57.9985 127.993C60.9093 139.964 69.1441 155.549 79.4958 168.666C90.2331 182.275 101.411 190.929 109.399 191.822C111.919 192.104 114.134 191.619 115.978 190.38L200.882 133.563C223.068 118.718 237.863 104.82 247.451 89.819C257.271 74.4667 261.775 57.7725 261.644 37.278C261.632 35.0984 260.324 33.1368 258.315 32.2928C248.312 28.063 238.897 25.5006 229.513 24.4508M229.67 23.0447C239.223 24.1134 248.856 26.7571 258.859 30.9869C261.376 32.0516 263.032 34.529 263.045 37.271C263.311 78.3458 244.796 105.866 201.653 134.738L116.749 191.555C114.544 193.031 112 193.537 109.228 193.227C84.0987 190.416 40.3647 120.823 60.5612 107.308L145.465 50.4911C177.185 29.2603 203.13 20.0756 229.67 23.0447Z" fill="url(#paint8_linear_22295_41915)"/>
<path d="M46.8557 91.2816L67.0139 77.7907C82.2169 67.6179 101.148 64.7172 118.686 69.8825L122.532 71.0175C125.69 71.9474 126.336 76.1483 123.593 77.9842L73.9889 111.181C72.2063 112.376 69.7942 111.893 68.6009 110.108L66.0383 106.269C65.6909 105.753 65.2272 105.324 64.6853 105.022L47.0205 95.2721C45.4878 94.4244 45.3962 92.2573 46.8549 91.2886L46.8557 91.2816Z" fill="url(#paint9_linear_22295_41915)"/>
<path d="M107.984 69.1624C93.8755 67.584 79.6061 71.0632 67.7982 78.9677L47.64 92.4586C47.256 92.7147 47.226 93.1099 47.2305 93.2599C47.2343 93.4169 47.2979 93.8013 47.7064 94.025L65.3713 103.775C66.1072 104.184 66.7525 104.769 67.2207 105.476L69.7833 109.315C70.1914 109.923 70.8369 110.316 71.5669 110.397C72.1425 110.462 72.7268 110.321 73.2107 109.998L122.815 76.801C123.637 76.2523 124.037 75.3432 123.883 74.3721C123.736 73.3947 123.08 72.6522 122.138 72.3688L118.292 71.2338C114.934 70.246 111.466 69.5449 107.985 69.1554M108.142 67.7493C111.687 68.1458 115.211 68.8533 118.686 69.8755L122.532 71.0105C125.69 71.9404 126.336 76.1414 123.593 77.9772L73.9889 111.174C73.1975 111.704 72.28 111.901 71.4026 111.803C70.3006 111.679 69.2645 111.094 68.6009 110.101L66.0382 106.262C65.6908 105.747 65.2271 105.317 64.6853 105.015L47.0204 95.2652C45.4877 94.4175 45.3961 92.2503 46.8548 91.2817L67.0131 77.7908C79.205 69.6302 93.7941 66.1512 108.141 67.7563L108.142 67.7493Z" fill="url(#paint10_linear_22295_41915)"/>
<path d="M117.75 197.277L139.084 182.999C153.534 173.333 163.257 158.02 165.885 140.816L166.34 137.828C166.849 134.482 163.154 132.125 160.343 134.003L111.162 166.913C109.379 168.108 108.896 170.524 110.089 172.309L112.152 175.402C112.523 175.963 112.749 176.608 112.795 177.282L114.119 195.497C114.246 197.283 116.254 198.263 117.737 197.268L117.75 197.277Z" fill="url(#paint11_linear_22295_41915)"/>
<path d="M162.766 134.78C162.197 134.716 161.641 134.86 161.141 135.196L111.96 168.105C110.824 168.861 110.523 170.407 111.278 171.538L113.341 174.631C113.846 175.392 114.151 176.28 114.22 177.192L115.544 195.407C115.585 195.931 115.994 196.212 116.366 196.253C116.577 196.277 116.781 196.229 116.966 196.1L138.3 181.822C152.381 172.399 161.93 157.373 164.488 140.603L164.943 137.615C165.076 136.747 164.769 136.122 164.483 135.755C164.061 135.209 163.433 134.847 162.752 134.771M162.91 133.365C164.952 133.594 166.698 135.462 166.341 137.828L165.885 140.816C163.257 158.02 153.528 173.325 139.085 182.999L117.751 197.277C117.267 197.6 116.721 197.717 116.209 197.659C115.156 197.542 114.226 196.704 114.133 195.505L112.809 177.291C112.763 176.623 112.537 175.972 112.166 175.411L110.103 172.318C108.91 170.533 109.393 168.117 111.176 166.921L160.357 134.012C161.179 133.463 162.081 133.272 162.924 133.367L162.91 133.365Z" fill="url(#paint12_linear_22295_41915)"/>
<path d="M263.061 37.2801C263.04 34.5443 261.392 32.0607 258.874 30.996C236.507 21.5461 216.005 20 194.042 26.3058C194.289 26.9598 194.465 27.613 194.492 28.2567C194.581 30.509 191.868 33.3519 192.455 35.9162C192.971 38.1734 196.641 39.6661 197.493 42.0891C198.275 44.3121 196.3 47.7358 197.321 50.0425C198.293 52.2227 202.156 53.0749 203.309 55.2824C204.428 57.415 202.91 61.0749 204.179 63.1959C205.424 65.2855 209.359 65.6901 210.722 67.7291C212.086 69.7681 210.958 73.5641 212.417 75.5141C213.894 77.4945 217.846 77.4882 219.395 79.3413C220.993 81.257 220.307 85.1596 221.948 86.8878C223.683 88.7192 227.601 88.1964 229.358 89.7669C231.27 91.4828 231.238 95.4513 233.12 96.7937C235.26 98.3144 238.922 96.9018 240.962 97.849C241.557 98.122 242.093 98.5449 242.607 99.0296C256.812 81.1284 263.229 61.5729 263.076 37.2747L263.061 37.2801Z" fill="url(#paint13_linear_22295_41915)"/>
<path d="M229.529 24.4593C218.382 23.2123 207.327 24.1325 195.795 27.2843C195.853 27.5968 195.89 27.9 195.906 28.2007C195.961 29.5452 195.353 30.8581 194.77 32.1241C194.198 33.3628 193.614 34.6429 193.827 35.5992C193.99 36.3008 194.928 37.1318 195.834 37.9307C196.978 38.9415 198.279 40.0836 198.818 41.6174C199.314 43.0325 199.019 44.5869 198.738 46.0859C198.496 47.3545 198.251 48.6582 198.608 49.4669C198.92 50.171 199.997 50.8395 201.034 51.4823C202.337 52.283 203.806 53.1948 204.555 54.6311C205.281 56.015 205.185 57.6344 205.102 59.2054C205.033 60.4576 204.959 61.7591 205.39 62.4765C205.803 63.1704 206.957 63.7125 208.078 64.2436C209.515 64.9241 211.008 65.6249 211.89 66.948C212.78 68.2719 212.859 69.9179 212.936 71.514C212.996 72.7522 213.06 74.0265 213.541 74.6783C214.042 75.3465 215.266 75.7753 216.449 76.1924C217.934 76.7073 219.466 77.2417 220.469 78.443C221.503 79.6834 221.788 81.3952 222.031 82.9031C222.23 84.1141 222.431 85.361 222.966 85.9191C223.577 86.5569 224.875 86.8303 226.132 87.092C227.626 87.4014 229.174 87.7241 230.292 88.7247C231.506 89.8144 232.062 91.4498 232.554 92.9001C232.945 94.0471 233.345 95.2309 233.931 95.6523C234.26 95.8884 234.713 96.0316 235.316 96.0992C235.983 96.1738 236.754 96.1461 237.496 96.1153C238.296 96.0837 239.123 96.0553 239.903 96.1424C240.541 96.2139 241.08 96.3525 241.553 96.5762C241.829 96.7068 242.097 96.8577 242.375 97.0383C255.674 79.8046 261.811 60.7801 261.66 37.2936C261.648 35.114 260.339 33.1524 258.33 32.3083C248.333 28.0864 238.913 25.5162 229.535 24.4671M229.692 23.061C239.245 24.1298 248.878 26.7735 258.874 31.0025C261.391 32.0671 263.047 34.5445 263.061 37.2866C263.221 61.5856 256.796 81.1474 242.592 99.0415C242.077 98.5568 241.542 98.1339 240.947 97.8609C240.589 97.6927 240.18 97.5972 239.731 97.5469C238.348 97.3922 236.647 97.6717 235.145 97.5037C234.394 97.4197 233.684 97.2193 233.098 96.8049C231.216 95.4625 231.24 91.4931 229.336 89.778C227.585 88.2084 223.668 88.7241 221.925 86.8989C220.285 85.1707 220.97 81.2682 219.372 79.3525C217.823 77.5064 213.872 77.5057 212.395 75.5252C210.943 73.576 212.064 69.7792 210.7 67.7402C209.336 65.7013 205.401 65.2967 204.157 63.207C202.895 61.0868 204.406 57.4261 203.287 55.2936C202.134 53.086 198.263 52.233 197.299 50.0537C196.278 47.7469 198.253 44.3232 197.471 42.1002C196.619 39.6772 192.948 38.1845 192.433 35.9273C191.846 33.363 194.559 30.5202 194.47 28.2679C194.442 27.6242 194.267 26.971 194.02 26.3169C206.158 22.8342 217.857 21.7441 229.663 23.0649L229.692 23.061Z" fill="url(#paint14_linear_22295_41915)"/>
<path d="M258.873 30.9958C254.279 29.0511 249.768 27.4502 245.304 26.182C249.611 35.0778 255.748 44.2567 262.32 51.6406C262.849 47.0372 263.1 42.2603 263.067 37.2808C263.046 34.545 261.398 32.0613 258.88 30.9966L258.873 30.9958Z" fill="url(#paint15_linear_22295_41915)"/>
<path d="M248.051 28.4895C251.65 35.3272 256.289 42.2741 261.238 48.2165C261.534 44.6833 261.674 41.0187 261.651 37.286C261.639 35.1064 260.33 33.1448 258.321 32.3007C254.88 30.8481 251.435 29.5657 248.051 28.4895ZM245.303 26.1818C249.766 27.457 254.285 29.0587 258.872 30.9957C261.39 32.0603 263.046 34.5377 263.059 37.2798C263.092 42.2593 262.842 47.0363 262.312 51.6396C255.74 44.2557 249.603 35.0769 245.296 26.181L245.303 26.1818Z" fill="url(#paint16_linear_22295_41915)"/>
<path d="M112.54 107.631C107.576 100.129 118.275 84.2716 136.437 72.2132C154.599 60.1548 173.346 56.4614 178.31 63.9637C183.274 71.4659 172.575 87.323 154.413 99.3814C136.252 111.44 117.504 115.133 112.54 107.631Z" fill="url(#paint17_linear_22295_41915)"/>
<path d="M170.972 60.1983C162.633 59.2655 149.39 63.6069 136.446 72.2029C118.282 84.2583 107.588 100.118 112.549 107.613C113.972 109.766 116.534 110.999 119.889 111.374C128.228 112.307 141.471 107.966 154.415 99.3698C172.579 87.3144 183.273 71.4549 178.312 63.9594C176.89 61.8071 174.327 60.5737 170.972 60.1983ZM171.444 55.9801C177.403 56.6467 180.392 59.4085 181.844 61.6139C185.254 66.7719 184.082 74.1295 178.545 82.3368C173.731 89.472 165.991 96.7852 156.755 102.913C143.343 111.813 129.04 116.676 119.417 115.6C113.457 114.933 110.469 112.171 109.017 109.966C105.607 104.808 106.778 97.4503 112.316 89.243C117.13 82.1078 124.87 74.7946 134.105 68.6666C147.517 59.7669 161.82 54.9035 171.444 55.9801Z" fill="url(#paint18_linear_22295_41915)"/>
<path d="M143.442 105.639C128.398 114.263 85.877 99.8396 76.1038 94.6389C75.0241 94.0625 74.6562 92.9037 75.2412 92.058C77.9631 88.184 82.966 86.4088 87.8561 86.9132C84.4008 83.5582 83.7611 78.6034 86.0416 74.5447C86.5299 73.674 87.6253 73.348 88.5196 73.804C92.1237 76.5919 96.0776 79.0487 98.5645 79.6259L143.435 105.638L143.442 105.639Z" fill="#4E4DF3"/>
<path d="M92.8296 72.2502C99.6238 108.845 132.047 111.383 143.443 105.632C150.817 101.915 158.243 97.2859 163.432 92.5703C179.996 77.5384 179.488 74.3351 173.441 53.7341C166.939 31.815 147.981 17.1017 123.909 22.6305C99.8374 28.1594 88.6572 49.766 92.8366 72.251L92.8296 72.2502Z" fill="url(#paint19_linear_22295_41915)"/>
<path d="M128.012 56.0575C127.503 53.8298 128.576 51.6826 130.409 51.2616C132.242 50.8407 134.14 52.3054 134.649 54.5331C135.159 56.7608 134.086 58.908 132.253 59.329C130.42 59.75 128.522 58.2853 128.012 56.0575Z" fill="#FF5F58"/>
<mask id="mask0_22295_41915" style="mask-type:luminance" maskUnits="userSpaceOnUse" x="127" y="51" width="8" height="9">
<path d="M128.012 56.0575C127.503 53.8298 128.576 51.6826 130.409 51.2616C132.242 50.8407 134.14 52.3054 134.649 54.5331C135.159 56.7608 134.086 58.908 132.253 59.329C130.42 59.75 128.522 58.2853 128.012 56.0575Z" fill="white"/>
</mask>
<g mask="url(#mask0_22295_41915)">
<path d="M125.405 60.9054C124.987 59.0737 127.714 56.8844 131.498 56.0154C135.281 55.1464 138.688 55.9268 139.106 57.7585C139.525 59.5902 136.798 61.7795 133.014 62.6485C129.231 63.5175 125.824 62.7371 125.405 60.9054Z" fill="#FF8888"/>
</g>
<g filter="url(#filter1_i_22295_41915)">
<path d="M119.774 30.618C122.342 29.9656 124.912 31.0647 126.279 33.1396C126.6 30.7196 128.375 28.6402 130.891 28.0605C134.13 27.3194 137.35 29.3454 138.097 32.5824L139.558 38.9603C140.297 42.2035 138.273 45.4295 135.041 46.1784C134.377 46.3319 133.712 46.3644 133.066 46.2992C130.495 46.0258 127.961 46.7603 125.72 48.0542C125.172 48.3703 124.571 48.602 123.916 48.7352C120.694 49.3927 117.561 47.2269 116.826 44.0126L115.441 37.9636C114.707 34.7493 116.584 31.4357 119.774 30.618Z" fill="white"/>
</g>
<g filter="url(#filter2_di_22295_41915)">
<path d="M119.057 42.4822C123.577 40.7029 125.598 40.3025 127.801 39.7944C130.011 39.2871 132.002 38.7695 136.841 38.3927C141.924 38.0003 146.596 40.2669 147.628 44.7603C148.653 49.2599 145.287 53.8734 140.101 55.0586C136.447 55.8955 132.872 54.8123 130.719 52.5283C129.772 55.5261 127.022 58.0658 123.368 58.9027C118.181 60.095 113.144 57.4102 112.119 52.9106C111.095 48.411 114.315 44.3364 119.058 42.4682L119.057 42.4822Z" fill="#C1D7FF"/>
</g>
<path d="M106.898 54.1696L120.414 51.0689C120.648 51.0167 120.802 50.7777 120.743 50.5433C120.684 50.3089 120.453 50.1549 120.218 50.2141L106.702 53.3148C106.469 53.367 106.314 53.606 106.373 53.8404C106.432 54.0748 106.664 54.2288 106.898 54.1696Z" fill="white"/>
<path d="M119.577 48.7688C119.789 48.7212 119.932 48.5237 119.92 48.3088C119.905 48.0651 119.69 47.8845 119.447 47.9L106.694 48.8793C106.45 48.9018 106.27 49.1095 106.286 49.3533C106.301 49.597 106.515 49.7776 106.759 49.7621L119.512 48.7828C119.512 48.7828 119.555 48.7805 119.576 48.7758L119.577 48.7688Z" fill="white"/>
<path d="M108.751 58.1923C108.751 58.1923 108.795 58.1829 108.817 58.1712L120.72 53.4877C120.943 53.3987 121.057 53.141 120.968 52.9175C120.88 52.694 120.629 52.5806 120.399 52.6688L108.497 57.3523C108.274 57.4413 108.16 57.699 108.248 57.9225C108.332 58.1311 108.547 58.2406 108.758 58.1931L108.751 58.1923Z" fill="white"/>
<path d="M139.343 46.7228L152.86 43.6221C153.093 43.5699 153.247 43.331 153.188 43.0966C153.129 42.8622 152.898 42.7081 152.664 42.7674L139.147 45.868C138.914 45.9203 138.76 46.1592 138.819 46.3936C138.878 46.628 139.109 46.782 139.343 46.7228Z" fill="white"/>
<path d="M139.099 44.2821C139.099 44.2821 139.142 44.2728 139.165 44.2611L151.068 39.5775C151.291 39.4886 151.405 39.2308 151.316 39.0074C151.227 38.7839 150.97 38.6697 150.747 38.7586L138.845 43.4422C138.621 43.5311 138.507 43.7888 138.596 44.0123C138.679 44.221 138.894 44.3304 139.106 44.2829L139.099 44.2821Z" fill="white"/>
<path d="M152.933 48.0442C153.144 47.9966 153.287 47.7991 153.276 47.5842C153.26 47.3405 153.046 47.1599 152.802 47.1754L140.049 48.1547C139.812 48.178 139.626 48.3849 139.641 48.6287C139.656 48.8724 139.871 49.053 140.114 49.0375L152.867 48.0582C152.867 48.0582 152.91 48.0559 152.932 48.0512L152.933 48.0442Z" fill="white"/>
<path d="M127.955 45.7837C125.998 45.5647 124.588 43.7976 124.808 41.8368C125.027 39.8759 126.792 38.4639 128.75 38.6829C130.707 38.9019 132.117 40.6691 131.897 42.6299C131.678 44.5907 129.913 46.0027 127.955 45.7837Z" fill="url(#paint20_radial_22295_41915)"/>
<path d="M129.285 36.5582C129.613 36.4811 129.913 36.2797 130.111 35.9744C130.466 35.4019 131.225 35.2305 131.796 35.5863C132.413 35.9757 133.23 35.7894 133.619 35.1709C134.008 34.5524 133.823 33.7344 133.205 33.345C131.399 32.2104 129.013 32.7621 127.881 34.5645C127.492 35.183 127.677 36.0011 128.295 36.3905C128.607 36.5821 128.964 36.6362 129.292 36.559L129.285 36.5582Z" fill="#333333"/>
<path d="M121.551 38.3409C121.879 38.2638 122.179 38.0624 122.376 37.7571C122.732 37.1846 123.49 37.0132 124.062 37.369C124.679 37.7584 125.496 37.5722 125.885 36.9537C126.274 36.3352 126.088 35.5171 125.471 35.1277C123.665 33.9931 121.279 34.5449 120.146 36.3473C119.757 36.9658 119.943 37.7838 120.56 38.1732C120.873 38.3648 121.229 38.4189 121.558 38.3417L121.551 38.3409Z" fill="#333333"/>
<path d="M119.215 67.8345C126.248 68.6213 133.383 67.8036 140.188 65.2904C153.509 60.3741 163.052 49.5965 165.09 37.1607C165.247 36.196 164.595 35.2902 163.632 35.1326C162.654 34.9805 161.764 35.6284 161.607 36.5931C159.773 47.7775 151.102 57.4994 138.974 61.9797C124.059 67.4795 107.359 64.1591 94.3051 53.0888C93.5585 52.4572 92.4461 52.5534 91.816 53.2944C91.185 54.0424 91.2807 55.1565 92.0204 55.7874C100.135 62.6675 109.576 66.7634 119.214 67.8415L119.215 67.8345Z" fill="url(#paint21_linear_22295_41915)"/>
<path d="M94.2974 60.4626C94.6062 60.4972 94.9237 60.4544 95.2234 60.3171C96.1145 59.9114 96.5016 58.8655 96.0968 57.9732C95.1611 55.918 92.5607 53.3065 89.5787 52.5173C87.2035 51.8957 85.0689 52.3616 83.014 52.8151C81.3749 53.1727 79.6843 53.546 77.7462 53.4003C75.1529 53.2027 72.6281 52.2654 70.2288 50.5875C69.4314 50.0285 68.3291 50.2255 67.7706 51.0244C67.2122 51.8232 67.4085 52.9272 68.2059 53.4862C71.1329 55.5292 74.2511 56.6896 77.4801 56.9227C79.933 57.1045 81.9661 56.6557 83.7659 56.2591C85.646 55.843 87.1252 55.5173 88.6778 55.933C90.618 56.442 92.365 58.296 92.885 59.4291C93.1535 60.0143 93.7015 60.3889 94.2982 60.4556L94.2974 60.4626Z" fill="url(#paint22_linear_22295_41915)"/>
<path d="M75.3488 65.7529C75.4751 65.767 75.61 65.7679 75.7466 65.7547C78.9644 65.3886 81.0471 64.3687 82.6673 63.4182C84.0143 62.6221 84.8776 61.8929 85.6395 61.245C86.5341 60.4908 87.2335 59.8928 88.5905 59.3257C89.9482 58.7515 91.2207 59.1928 93.7874 60.327C94.6747 60.7181 95.7218 60.3156 96.1134 59.4198C96.5051 58.524 96.1028 57.4824 95.2085 57.0905C92.7088 55.9922 90.1211 54.8556 87.2207 56.0688C85.3644 56.8434 84.3433 57.7116 83.3543 58.5477C82.6322 59.1574 81.957 59.7296 80.8691 60.3696C79.5073 61.1711 77.899 61.9522 75.3434 62.2429C74.3715 62.3548 73.6764 63.231 73.7886 64.1974C73.8799 65.0333 74.5416 65.6626 75.348 65.7599L75.3488 65.7529Z" fill="url(#paint23_linear_22295_41915)"/>
<g filter="url(#filter3_di_22295_41915)">
<path d="M98.6861 73.1832C103.095 86.8171 113.949 93.0285 126.324 89.0171C129.812 87.884 131.717 84.1392 130.593 80.6535C129.469 77.1679 125.724 75.2541 122.244 76.381C120.127 77.0696 114.441 78.9107 111.257 69.0656C110.127 65.5722 106.389 63.6662 102.908 64.793C99.4736 65.9535 97.5693 69.6983 98.6932 73.184L98.6861 73.1832Z" fill="url(#paint24_linear_22295_41915)" shape-rendering="crispEdges"/>
</g>
<g filter="url(#filter4_di_22295_41915)">
<path d="M169.528 59.1618C171.637 58.6005 173.467 56.99 174.175 54.7202C176.266 48.106 173.035 36.8961 169.017 32.0901C166.652 29.2842 162.498 28.9334 159.685 31.2668C156.883 33.637 156.531 37.7975 158.86 40.6136C160.519 42.6144 162.041 48.8994 161.535 50.7506C160.426 54.2498 162.394 57.9367 165.844 59.0558C167.132 59.4846 168.392 59.4689 169.528 59.1618Z" fill="url(#paint25_linear_22295_41915)"/>
</g>
<defs>
<filter id="filter0_i_22295_41915" x="0.274847" y="148.197" width="75.2168" height="68.3462" filterUnits="userSpaceOnUse" color-interpolation-filters="sRGB">
<feFlood flood-opacity="0" result="BackgroundImageFix"/>
<feBlend mode="normal" in="SourceGraphic" in2="BackgroundImageFix" result="shape"/>
<feColorMatrix in="SourceAlpha" type="matrix" values="0 0 0 0 0 0 0 0 0 0 0 0 0 0 0 0 0 0 127 0" result="hardAlpha"/>
<feOffset dx="-2" dy="2"/>
<feGaussianBlur stdDeviation="3.5"/>
<feComposite in2="hardAlpha" operator="arithmetic" k2="-1" k3="1"/>
<feColorMatrix type="matrix" values="0 0 0 0 1 0 0 0 0 1 0 0 0 0 1 0 0 0 1 0"/>
<feBlend mode="normal" in2="shape" result="effect1_innerShadow_22295_41915"/>
</filter>
<filter id="filter1_i_22295_41915" x="115.283" y="27.9076" width="24.4277" height="20.9453" filterUnits="userSpaceOnUse" color-interpolation-filters="sRGB">
<feFlood flood-opacity="0" result="BackgroundImageFix"/>
<feBlend mode="normal" in="SourceGraphic" in2="BackgroundImageFix" result="shape"/>
<feColorMatrix in="SourceAlpha" type="matrix" values="0 0 0 0 0 0 0 0 0 0 0 0 0 0 0 0 0 0 127 0" result="hardAlpha"/>
<feOffset/>
<feGaussianBlur stdDeviation="2.5"/>
<feComposite in2="hardAlpha" operator="arithmetic" k2="-1" k3="1"/>
<feColorMatrix type="matrix" values="0 0 0 0 0.564706 0 0 0 0 0.6 0 0 0 0 0.866667 0 0 0 0.75 0"/>
<feBlend mode="darken" in2="shape" result="effect1_innerShadow_22295_41915"/>
</filter>
<filter id="filter2_di_22295_41915" x="105.929" y="35.349" width="47.8828" height="32.8364" filterUnits="userSpaceOnUse" color-interpolation-filters="sRGB">
<feFlood flood-opacity="0" result="BackgroundImageFix"/>
<feColorMatrix in="SourceAlpha" type="matrix" values="0 0 0 0 0 0 0 0 0 0 0 0 0 0 0 0 0 0 127 0" result="hardAlpha"/>
<feOffset dy="3"/>
<feGaussianBlur stdDeviation="3"/>
<feComposite in2="hardAlpha" operator="out"/>
<feColorMatrix type="matrix" values="0 0 0 0 0.278431 0 0 0 0 0.278431 0 0 0 0 0.698039 0 0 0 0.5 0"/>
<feBlend mode="overlay" in2="BackgroundImageFix" result="effect1_dropShadow_22295_41915"/>
<feBlend mode="normal" in="SourceGraphic" in2="effect1_dropShadow_22295_41915" result="shape"/>
<feColorMatrix in="SourceAlpha" type="matrix" values="0 0 0 0 0 0 0 0 0 0 0 0 0 0 0 0 0 0 127 0" result="hardAlpha"/>
<feOffset/>
<feGaussianBlur stdDeviation="2.5"/>
<feComposite in2="hardAlpha" operator="arithmetic" k2="-1" k3="1"/>
<feColorMatrix type="matrix" values="0 0 0 0 0.478431 0 0 0 0 0.541176 0 0 0 0 0.972549 0 0 0 0.75 0"/>
<feBlend mode="darken" in2="shape" result="effect2_innerShadow_22295_41915"/>
</filter>
<filter id="filter3_di_22295_41915" x="90.3706" y="56.4691" width="50.5449" height="46.7505" filterUnits="userSpaceOnUse" color-interpolation-filters="sRGB">
<feFlood flood-opacity="0" result="BackgroundImageFix"/>
<feColorMatrix in="SourceAlpha" type="matrix" values="0 0 0 0 0 0 0 0 0 0 0 0 0 0 0 0 0 0 127 0" result="hardAlpha"/>
<feOffset dx="1" dy="4"/>
<feGaussianBlur stdDeviation="4.5"/>
<feComposite in2="hardAlpha" operator="out"/>
<feColorMatrix type="matrix" values="0 0 0 0 0.305882 0 0 0 0 0.301961 0 0 0 0 0.956863 0 0 0 0.25 0"/>
<feBlend mode="color-burn" in2="BackgroundImageFix" result="effect1_dropShadow_22295_41915"/>
<feBlend mode="normal" in="SourceGraphic" in2="effect1_dropShadow_22295_41915" result="shape"/>
<feColorMatrix in="SourceAlpha" type="matrix" values="0 0 0 0 0 0 0 0 0 0 0 0 0 0 0 0 0 0 127 0" result="hardAlpha"/>
<feOffset dx="-3" dy="-11"/>
<feGaussianBlur stdDeviation="4"/>
<feComposite in2="hardAlpha" operator="arithmetic" k2="-1" k3="1"/>
<feColorMatrix type="matrix" values="0 0 0 0 0.305882 0 0 0 0 0.301961 0 0 0 0 0.956863 0 0 0 0.75 0"/>
<feBlend mode="normal" in2="shape" result="effect2_innerShadow_22295_41915"/>
</filter>
<filter id="filter4_di_22295_41915" x="154.324" y="20.726" width="35.5078" height="47.6597" filterUnits="userSpaceOnUse" color-interpolation-filters="sRGB">
<feFlood flood-opacity="0" result="BackgroundImageFix"/>
<feColorMatrix in="SourceAlpha" type="matrix" values="0 0 0 0 0 0 0 0 0 0 0 0 0 0 0 0 0 0 127 0" result="hardAlpha"/>
<feOffset dx="6"/>
<feGaussianBlur stdDeviation="4.5"/>
<feComposite in2="hardAlpha" operator="out"/>
<feColorMatrix type="matrix" values="0 0 0 0 0.305882 0 0 0 0 0.301961 0 0 0 0 0.956863 0 0 0 0.25 0"/>
<feBlend mode="color-burn" in2="BackgroundImageFix" result="effect1_dropShadow_22295_41915"/>
<feBlend mode="normal" in="SourceGraphic" in2="effect1_dropShadow_22295_41915" result="shape"/>
<feColorMatrix in="SourceAlpha" type="matrix" values="0 0 0 0 0 0 0 0 0 0 0 0 0 0 0 0 0 0 127 0" result="hardAlpha"/>
<feOffset dx="-2" dy="5"/>
<feGaussianBlur stdDeviation="4"/>
<feComposite in2="hardAlpha" operator="arithmetic" k2="-1" k3="1"/>
<feColorMatrix type="matrix" values="0 0 0 0 0.305882 0 0 0 0 0.301961 0 0 0 0 0.956863 0 0 0 0.75 0"/>
<feBlend mode="normal" in2="shape" result="effect2_innerShadow_22295_41915"/>
</filter>
<linearGradient id="paint0_linear_22295_41915" x1="65.5159" y1="214.542" x2="29.5958" y2="161.225" gradientUnits="userSpaceOnUse">
<stop stop-color="#EEA8DD"/>
<stop offset="1" stop-color="#EED8E9"/>
</linearGradient>
<linearGradient id="paint1_linear_22295_41915" x1="66.3801" y1="164.588" x2="36.9571" y2="184.212" gradientUnits="userSpaceOnUse">
<stop stop-color="#FFD81A"/>
<stop offset="0.04" stop-color="#FFCF3F"/>
<stop offset="0.1" stop-color="#FFC664"/>
<stop offset="0.16" stop-color="#FFBE85"/>
<stop offset="0.22" stop-color="#FFB8A1"/>
<stop offset="0.3" stop-color="#FFB2B7"/>
<stop offset="0.38" stop-color="#FFAEC9"/>
<stop offset="0.49" stop-color="#FFACD5"/>
<stop offset="0.63" stop-color="#FFAADC"/>
<stop offset="1" stop-color="#FFAADE"/>
</linearGradient>
<linearGradient id="paint2_linear_22295_41915" x1="67.0344" y1="169.15" x2="31.9431" y2="192.555" gradientUnits="userSpaceOnUse">
<stop stop-color="#FFD81A"/>
<stop offset="0.01" stop-color="#FFC828"/>
<stop offset="0.05" stop-color="#FFAB45"/>
<stop offset="0.09" stop-color="#FF945B"/>
<stop offset="0.13" stop-color="#FF846B"/>
<stop offset="0.17" stop-color="#FF7B75"/>
<stop offset="0.23" stop-color="#FF7878"/>
<stop offset="0.43" stop-color="#FF828E"/>
<stop offset="0.85" stop-color="#FF9FC7"/>
<stop offset="1" stop-color="#FFAADE"/>
</linearGradient>
<linearGradient id="paint3_linear_22295_41915" x1="143.99" y1="163.415" x2="159.623" y2="186.775" gradientUnits="userSpaceOnUse">
<stop stop-color="#99B4FF"/>
<stop offset="1" stop-color="#6C8CFF"/>
</linearGradient>
<linearGradient id="paint4_linear_22295_41915" x1="160.199" y1="187.717" x2="143.502" y2="162.766" gradientUnits="userSpaceOnUse">
<stop stop-color="#D2E2FF"/>
<stop offset="1" stop-color="#82A0FF"/>
</linearGradient>
<linearGradient id="paint5_linear_22295_41915" x1="117.043" y1="83.402" x2="158.785" y2="145.774" gradientUnits="userSpaceOnUse">
<stop stop-color="#99B4FF"/>
<stop offset="1" stop-color="#6C8CFF"/>
</linearGradient>
<linearGradient id="paint6_linear_22295_41915" x1="115.267" y1="80.7473" x2="162.321" y2="151.052" gradientUnits="userSpaceOnUse">
<stop stop-color="#D2E2FF"/>
<stop offset="1" stop-color="#82A0FF"/>
</linearGradient>
<linearGradient id="paint7_linear_22295_41915" x1="140.943" y1="58.1449" x2="190.903" y2="132.796" gradientUnits="userSpaceOnUse">
<stop stop-color="#EAF2FE"/>
<stop offset="0.93" stop-color="#C2D7FF"/>
</linearGradient>
<linearGradient id="paint8_linear_22295_41915" x1="138.818" y1="54.9581" x2="195.138" y2="139.117" gradientUnits="userSpaceOnUse">
<stop stop-color="#C2D7FF"/>
<stop offset="1" stop-color="white"/>
</linearGradient>
<linearGradient id="paint9_linear_22295_41915" x1="94.189" y1="96.6521" x2="77.718" y2="72.0404" gradientUnits="userSpaceOnUse">
<stop stop-color="#99B4FF"/>
<stop offset="1" stop-color="#6C8CFF"/>
</linearGradient>
<linearGradient id="paint10_linear_22295_41915" x1="77.0992" y1="71.0461" x2="94.6872" y2="97.3265" gradientUnits="userSpaceOnUse">
<stop stop-color="#D2E2FF"/>
<stop offset="1" stop-color="#82A0FF"/>
</linearGradient>
<linearGradient id="paint11_linear_22295_41915" x1="132.118" y1="153.845" x2="147.161" y2="176.324" gradientUnits="userSpaceOnUse">
<stop stop-color="#99B4FF"/>
<stop offset="1" stop-color="#6C8CFF"/>
</linearGradient>
<linearGradient id="paint12_linear_22295_41915" x1="147.711" y1="177.23" x2="131.649" y2="153.225" gradientUnits="userSpaceOnUse">
<stop stop-color="#D2E2FF"/>
<stop offset="1" stop-color="#82A0FF"/>
</linearGradient>
<linearGradient id="paint13_linear_22295_41915" x1="212.669" y1="17.8161" x2="255.815" y2="82.2858" gradientUnits="userSpaceOnUse">
<stop stop-color="#99B4FF"/>
<stop offset="1" stop-color="#6C8CFF"/>
</linearGradient>
<linearGradient id="paint14_linear_22295_41915" x1="210.835" y1="15.0717" x2="259.469" y2="87.7422" gradientUnits="userSpaceOnUse">
<stop stop-color="#C5D9FF"/>
<stop offset="1" stop-color="#FEFFFF"/>
</linearGradient>
<linearGradient id="paint15_linear_22295_41915" x1="249.575" y1="24.7106" x2="264.681" y2="47.2835" gradientUnits="userSpaceOnUse">
<stop stop-color="#7689FD"/>
<stop offset="0.93" stop-color="#4E4DF3"/>
</linearGradient>
<linearGradient id="paint16_linear_22295_41915" x1="248.93" y1="23.7473" x2="265.963" y2="49.1978" gradientUnits="userSpaceOnUse">
<stop stop-color="#D4E4FF"/>
<stop offset="1" stop-color="#ECF3FF"/>
</linearGradient>
<linearGradient id="paint17_linear_22295_41915" x1="179.097" y1="62.5657" x2="124.519" y2="107.282" gradientUnits="userSpaceOnUse">
<stop stop-color="#293E5E"/>
<stop offset="1" stop-color="#3A3A9B"/>
</linearGradient>
<linearGradient id="paint18_linear_22295_41915" x1="185.475" y1="80.5495" x2="105.379" y2="90.9639" gradientUnits="userSpaceOnUse">
<stop stop-color="#D2E2FF"/>
<stop offset="1" stop-color="#82A0FF"/>
</linearGradient>
<linearGradient id="paint19_linear_22295_41915" x1="124.3" y1="23.4997" x2="141.648" y2="99.0329" gradientUnits="userSpaceOnUse">
<stop stop-color="#7A90FE"/>
<stop offset="0.87" stop-color="#4E4DF4"/>
</linearGradient>
<radialGradient id="paint20_radial_22295_41915" cx="0" cy="0" r="1" gradientTransform="matrix(-3.44938 0.792256 0.789803 3.45449 128.349 42.265)" gradientUnits="userSpaceOnUse">
<stop stop-color="#444444"/>
<stop offset="0.25" stop-color="#3A3A3A"/>
<stop offset="0.57" stop-color="#333333"/>
<stop offset="0.74" stop-color="#353535"/>
<stop offset="0.86" stop-color="#3E3E3E"/>
<stop offset="0.97" stop-color="#4D4D4D"/>
<stop offset="1" stop-color="#555555"/>
</radialGradient>
<linearGradient id="paint21_linear_22295_41915" x1="153.976" y1="61.444" x2="101.566" y2="33.9373" gradientUnits="userSpaceOnUse">
<stop stop-color="#EBDACC"/>
<stop offset="1" stop-color="#EBB580"/>
</linearGradient>
<linearGradient id="paint22_linear_22295_41915" x1="67.5879" y1="51.2414" x2="96.5262" y2="57.6865" gradientUnits="userSpaceOnUse">
<stop stop-color="#EBDACC"/>
<stop offset="1" stop-color="#EBB580"/>
</linearGradient>
<linearGradient id="paint23_linear_22295_41915" x1="76.0026" y1="67.6817" x2="94.0736" y2="54.9926" gradientUnits="userSpaceOnUse">
<stop stop-color="#EBDACC"/>
<stop offset="1" stop-color="#EBB580"/>
</linearGradient>
<linearGradient id="paint24_linear_22295_41915" x1="128.661" y1="88.6038" x2="115.678" y2="58.9795" gradientUnits="userSpaceOnUse">
<stop offset="0.254986" stop-color="#6B77F8"/>
<stop offset="1" stop-color="#6B77F8" stop-opacity="0"/>
</linearGradient>
<linearGradient id="paint25_linear_22295_41915" x1="164.908" y1="32.5863" x2="154.144" y2="42.3994" gradientUnits="userSpaceOnUse">
<stop offset="0.245192" stop-color="#6B77F8"/>
<stop offset="1" stop-color="#5C62F7"/>
</linearGradient>
</defs>
</svg>
