<svg width="96" height="42" viewBox="0 0 96 42" fill="none" xmlns="http://www.w3.org/2000/svg">
<path d="M45.1954 12.9694C44.4397 16.3014 39.3826 17.9922 33.9016 16.7471C28.4207 15.502 20.0228 12.1134 25.3483 8.44889C28.9928 5.94458 34.8198 4.55802 40.3007 5.81018C45.7817 7.05526 45.9512 9.63739 45.1954 12.9694Z" fill="url(#paint0_linear_22295_41866)"/>
<path d="M36.0629 6.75862C32.4537 6.75862 28.7456 7.82684 26.1464 9.61665C25.4119 10.126 25.0022 10.6141 25.0658 10.9325C25.2918 12.121 29.0211 14.1866 34.2124 15.3681C35.3072 15.6157 36.402 15.743 37.4614 15.743C40.7881 15.743 43.4014 14.4767 43.8111 12.6586C44.4256 9.94913 44.5668 8.23714 39.9829 7.19014C38.7257 6.90717 37.4049 6.75862 36.0629 6.75862ZM36.0629 5.34375C37.4685 5.34375 38.8952 5.49231 40.3007 5.81066C45.7817 7.05574 45.9512 9.63787 45.1954 12.9699C44.6092 15.5591 41.4238 17.1579 37.4685 17.1579C36.3313 17.1579 35.1235 17.0235 33.9016 16.7476C28.4207 15.5025 20.0228 12.1139 25.3483 8.44937C28.0605 6.58882 31.9805 5.34375 36.0629 5.34375Z" fill="url(#paint1_linear_22295_41866)"/>
<path d="M0.32711 26.0078C-1.13494 30.408 2.77798 32.2261 2.77798 32.2261C2.77798 32.2261 -0.449831 34.5253 1.40068 38.7699C2.89804 42.2009 8.02581 43.0498 12.3978 39.5339C15.8022 36.7961 17.1442 34.4191 17.5609 32.3322C17.7375 31.4338 17.6598 30.4929 17.3349 29.6369C16.5791 27.649 14.8557 25.5338 11.0417 23.4044C6.14703 20.6667 1.49957 22.4706 0.32711 26.0007V26.0078Z" fill="url(#paint2_linear_22295_41866)"/>
<path d="M6.30242 23.5035C4.08463 23.5035 2.26237 24.6637 1.66201 26.4606C0.666124 29.4601 2.91924 30.7335 3.37127 30.9528C3.82331 31.165 4.11994 31.6036 4.17645 32.0988C4.22589 32.594 4.00694 33.0821 3.61141 33.3863C3.37833 33.5632 1.37243 35.1761 2.70028 38.2181C3.29357 39.5764 4.72738 40.3899 6.52845 40.3899C8.1812 40.3899 9.95401 39.6966 11.5149 38.4445C14.2342 36.2585 15.7598 34.1716 16.1765 32.0705C16.3037 31.4267 16.2472 30.7688 16.0141 30.1534C15.2513 28.1513 13.4008 26.3544 10.3566 24.6566C9.01463 23.9067 7.60909 23.5106 6.30949 23.5106M6.30949 22.0957C7.7786 22.0957 9.39602 22.4989 11.0417 23.4257C14.8557 25.5551 16.5791 27.6703 17.3349 29.6582C17.6598 30.5142 17.7375 31.455 17.5609 32.3535C17.1442 34.4404 15.8022 36.8174 12.3978 39.5551C10.4626 41.1115 8.37896 41.8118 6.52845 41.8118C4.19765 41.8118 2.23412 40.7012 1.40068 38.7911C-0.449831 34.5465 2.77798 32.2474 2.77798 32.2474C2.77798 32.2474 -1.13494 30.4222 0.32711 26.029C1.10404 23.6874 3.41365 22.1028 6.30242 22.1028L6.30949 22.0957Z" fill="url(#paint3_linear_22295_41866)"/>
<path d="M13.0159 30.8109C11.7446 22.5339 33.2444 8.10939 54.6101 2.40749C75.9828 -3.29442 89.7981 1.67174 92.4467 11.6324C95.0954 21.6001 85.5815 32.7917 64.2088 38.4936C42.836 44.1955 14.5769 41.005 13.0089 30.8109H13.0159Z" fill="url(#paint4_linear_22295_41866)"/>
<path d="M71.1948 1.41023C66.3072 1.41023 60.8475 2.20255 54.9781 3.77305C32.8638 9.67304 13.384 23.8854 14.4152 30.5918C15.2557 36.0603 26.5424 39.8875 41.8621 39.8875C49.4831 39.8875 57.09 38.9324 63.8564 37.1285C82.7994 32.0704 93.7471 21.9753 91.0914 12.0005C89.3044 5.27281 82.0507 1.41731 71.1948 1.41731M71.1948 0.00244141C83.0537 0.00244141 90.5687 4.55829 92.4545 11.6397C95.1032 21.6074 85.5893 32.799 64.2166 38.5009C57.1182 40.3968 49.25 41.3094 41.8621 41.3094C27.0085 41.3094 14.062 37.6237 13.0167 30.8182C11.7453 22.5412 33.2452 8.11668 54.6108 2.41477C60.7981 0.76645 66.3567 0.00244141 71.1878 0.00244141H71.1948Z" fill="url(#paint5_linear_22295_41866)"/>
<path d="M80.6219 31.8227C75.4518 24.9536 62.8796 22.2229 44.9678 27.0051C36.033 29.3892 27.0912 33.2942 19.781 37.6449C29.754 42.0947 48.7747 42.6182 64.2074 38.4938C70.8184 36.7323 76.2852 34.4402 80.6148 31.8227H80.6219Z" fill="url(#paint6_linear_22295_41866)"/>
<path d="M61.5179 26.015C56.6374 26.015 51.1988 26.8073 45.3365 28.3707C37.8568 30.3657 30.0521 33.535 23.0809 37.3834C28.0109 38.9893 34.6643 39.8877 41.8686 39.8877C49.4825 39.8877 57.0894 38.9327 63.8558 37.1287C69.4285 35.6431 74.3302 33.7331 78.448 31.4551C74.98 27.9392 69.0542 26.015 61.525 26.015M61.525 24.6001C70.6857 24.6001 77.2473 27.3237 80.6375 31.823C76.3079 34.4405 70.8341 36.7255 64.2301 38.4941C57.1318 40.39 49.2706 41.3026 41.8827 41.3026C33.2093 41.3026 25.1857 40.0434 19.8037 37.6452C27.1068 33.3015 36.0557 29.3894 44.9904 27.0054C51.1706 25.357 56.7151 24.6001 61.532 24.6001H61.525Z" fill="url(#paint7_linear_22295_41866)"/>
<path d="M91.3946 21.919C91.1969 21.9968 90.985 22.0534 90.7731 22.0958C87.4605 22.7891 84.3599 19.6481 83.3993 14.6253C82.4387 9.60257 84.148 5.44993 87.4535 4.75664C90.766 4.06336 93.8667 7.20438 94.8273 12.2272C95.2228 14.2999 95.1592 16.3798 94.6366 18.0847C94.0503 20.0018 92.8849 21.3672 91.3946 21.926V21.919Z" fill="url(#paint8_linear_22295_41866)"/>
<path d="M88.3732 6.07209C88.1683 6.07209 87.9564 6.09331 87.7516 6.13576C85.2725 6.65926 84.0012 10.1893 84.7922 14.3561C85.5197 18.1338 87.6033 20.7725 89.8635 20.7725C90.0683 20.7725 90.2802 20.7513 90.4921 20.7089C90.6333 20.6806 90.7746 20.6381 90.9088 20.5886C91.9894 20.1854 92.837 19.1455 93.2961 17.6598C93.7481 16.1742 93.8046 14.342 93.4515 12.4885C92.724 8.71082 90.6404 6.07209 88.3802 6.07209M88.3802 4.65723C91.3326 4.65723 93.9671 7.66382 94.8429 12.2268C95.2384 14.2995 95.1749 16.3794 94.6522 18.0843C94.066 20.0015 92.9006 21.3668 91.4103 21.9257C91.2125 22.0035 91.0006 22.0601 90.7887 22.1025C90.485 22.1662 90.1742 22.2015 89.8776 22.2015C86.9252 22.2015 84.2907 19.195 83.4149 14.632C82.4543 9.60926 84.1636 5.45662 87.4691 4.76334C87.7728 4.69967 88.0836 4.66431 88.3802 4.66431V4.65723Z" fill="url(#paint9_linear_22295_41866)"/>
<path d="M89.1289 8.82373C88.7546 9.34016 88.246 11.0097 88.7122 13.4291C89.1784 15.8485 90.2519 17.1785 90.7958 17.5039C91.1701 16.9875 91.6787 15.318 91.2125 12.9056C90.7464 10.4862 89.6728 9.14916 89.136 8.83081L89.1289 8.82373Z" fill="#6C8CFF"/>
<path d="M64.1087 11.2014C63.261 8.01507 65.5684 4.63283 69.2623 3.647C72.9562 2.66117 76.6378 4.44507 77.4855 7.63144C78.3332 10.8178 76.0258 14.2 72.3319 15.1859C68.638 16.1717 64.9564 14.3878 64.1087 11.2014Z" fill="white"/>
<path d="M66.8032 9.02029C66.4627 7.74045 67.3906 6.38164 68.8757 5.9853C70.3608 5.58895 71.8407 6.30516 72.1812 7.585C72.5217 8.86483 71.5938 10.2236 70.1087 10.62C68.6236 11.0163 67.1436 10.3001 66.8032 9.02029Z" fill="#384970"/>
<path d="M48.6302 31.8934C47.2529 28.5685 50.403 25.0526 56.5267 22.5058C62.6503 19.959 74.5869 21.098 68.0182 26.0076C66.0618 27.4649 65.2707 28.3492 60.1783 31.8368C54.7044 35.5862 50.0146 35.2254 48.6373 31.9005L48.6302 31.8934Z" fill="url(#paint10_linear_22295_41866)"/>
<path d="M63.923 22.605C61.4509 22.605 58.887 23.0578 57.0718 23.8148C52.8411 25.5763 48.7516 28.4767 49.9382 31.356C50.5385 32.8062 51.937 33.1033 52.9965 33.1033C54.8117 33.1033 57.0789 32.2403 59.3744 30.6698C62.913 28.2433 64.3185 27.1255 65.5545 26.1351C66.0772 25.7177 66.5716 25.3216 67.1649 24.8759C68.1678 24.126 68.4292 23.6662 68.4927 23.5106C68.182 23.1922 66.7482 22.6121 63.9159 22.6121M63.9159 21.1973C68.6693 21.1973 72.3209 22.7961 68.0054 26.0149C66.0489 27.4722 65.2579 28.3565 60.1654 31.8441C57.4885 33.6764 54.9953 34.5253 52.9894 34.5253C50.9835 34.5253 49.3308 33.5986 48.6245 31.9007C47.2472 28.5758 50.3973 25.0598 56.5209 22.5131C58.6257 21.6359 61.4226 21.1973 63.9159 21.1973Z" fill="url(#paint11_linear_22295_41866)"/>
<defs>
<linearGradient id="paint0_linear_22295_41866" x1="28.4854" y1="6.48887" x2="41.8895" y2="15.1376" gradientUnits="userSpaceOnUse">
<stop stop-color="#99B4FF"/>
<stop offset="1" stop-color="#6C8CFF"/>
</linearGradient>
<linearGradient id="paint1_linear_22295_41866" x1="45.4567" y1="11.7955" x2="23.6741" y2="10.4204" gradientUnits="userSpaceOnUse">
<stop stop-color="#D2E2FF"/>
<stop offset="1" stop-color="#82A0FF"/>
</linearGradient>
<linearGradient id="paint2_linear_22295_41866" x1="8.04052" y1="22.0604" x2="9.6992" y2="41.6993" gradientUnits="userSpaceOnUse">
<stop stop-color="#99B4FF"/>
<stop offset="1" stop-color="#6C8CFF"/>
</linearGradient>
<linearGradient id="paint3_linear_22295_41866" x1="17.5821" y1="32.6506" x2="-0.245223" y2="31.5223" gradientUnits="userSpaceOnUse">
<stop stop-color="#D2E2FF"/>
<stop offset="1" stop-color="#82A0FF"/>
</linearGradient>
<linearGradient id="paint4_linear_22295_41866" x1="57.578" y1="41.1122" x2="52.498" y2="20.2918" gradientUnits="userSpaceOnUse">
<stop stop-color="#99B4FF"/>
<stop offset="1" stop-color="#6C8CFF"/>
</linearGradient>
<linearGradient id="paint5_linear_22295_41866" x1="92.398" y1="22.9728" x2="13.722" y2="17.9871" gradientUnits="userSpaceOnUse">
<stop stop-color="#D2E2FF"/>
<stop offset="1" stop-color="#82A0FF"/>
</linearGradient>
<linearGradient id="paint6_linear_22295_41866" x1="80.4361" y1="34.8178" x2="20.2099" y2="31.0031" gradientUnits="userSpaceOnUse">
<stop stop-color="#EAF2FE"/>
<stop offset="0.93" stop-color="#C2D7FF"/>
</linearGradient>
<linearGradient id="paint7_linear_22295_41866" x1="80.4327" y1="34.8225" x2="20.2055" y2="31.0075" gradientUnits="userSpaceOnUse">
<stop stop-color="#C2D7FF"/>
<stop offset="1" stop-color="white"/>
</linearGradient>
<linearGradient id="paint8_linear_22295_41866" x1="94.5397" y1="9.49072" x2="77.2562" y2="21.5421" gradientUnits="userSpaceOnUse">
<stop stop-color="#EAF2FE"/>
<stop offset="0.93" stop-color="#C2D7FF"/>
</linearGradient>
<linearGradient id="paint9_linear_22295_41866" x1="95.1819" y1="13.8114" x2="83.0404" y2="13.0428" gradientUnits="userSpaceOnUse">
<stop stop-color="#C2D7FF"/>
<stop offset="1" stop-color="white"/>
</linearGradient>
<linearGradient id="paint10_linear_22295_41866" x1="49.9627" y1="31.7543" x2="66.4361" y2="22.3339" gradientUnits="userSpaceOnUse">
<stop stop-color="#99B4FF"/>
<stop offset="1" stop-color="#6C8CFF"/>
</linearGradient>
<linearGradient id="paint11_linear_22295_41866" x1="58.6116" y1="34.8861" x2="59.5043" y2="20.865" gradientUnits="userSpaceOnUse">
<stop stop-color="#D2E2FF"/>
<stop offset="1" stop-color="#82A0FF"/>
</linearGradient>
</defs>
</svg>
