<svg width="68" height="36" viewBox="0 0 68 36" fill="none" xmlns="http://www.w3.org/2000/svg">
<path d="M36.7943 19.6954C38.5176 21.3437 42.0986 20.3745 44.8108 17.5377C47.5159 14.7009 51.0969 9.5013 46.5977 9.42348C43.5183 9.36688 39.5983 10.81 36.8931 13.6469C34.188 16.4837 35.0779 18.0471 36.7943 19.6954Z" fill="url(#paint0_linear_22295_41888)"/>
<path d="M46.4297 10.838C43.4562 10.838 40.1083 12.3236 37.9188 14.6227C37.2761 15.3019 36.5203 16.2569 36.598 16.9643C36.6474 17.41 37.0006 17.9194 37.7775 18.6692C38.0601 18.9451 38.4838 19.0795 39.0206 19.0795C40.4615 19.0795 42.3332 18.0891 43.7952 16.5611C46.3944 13.8375 47.4397 11.5525 47.3338 10.9582C47.2632 10.9229 47.0442 10.845 46.5781 10.838H46.4368M46.4368 9.4231C46.4933 9.4231 46.5498 9.4231 46.6063 9.4231C51.1125 9.50091 47.5245 14.7005 44.8194 17.5374C43.0112 19.4333 40.8005 20.4944 39.0277 20.4944C38.1519 20.4944 37.3749 20.2327 36.8099 19.688C35.0865 18.0396 34.1966 16.4762 36.9088 13.6394C39.5645 10.8521 43.3926 9.41602 46.4439 9.41602L46.4368 9.4231Z" fill="url(#paint1_linear_22295_41888)"/>
<path d="M59.7645 0.085051C61.6927 -0.424301 62.4061 1.48577 62.5968 2.32054C62.6392 2.4974 62.8369 2.59645 62.9923 2.50448C63.7975 2.06587 65.8175 1.14621 67.2866 2.97139C68.8758 4.89561 66.6863 9.76274 63.3101 11.6587C60.7604 13.1301 59.2136 12.932 58.2248 12.451C57.6032 12.1539 56.572 11.404 56.5508 6.29633C56.5367 3.15533 57.8292 0.650997 59.7645 0.085051Z" fill="url(#paint2_linear_22295_41888)"/>
<path d="M60.379 1.41487C60.3084 1.41487 60.2307 1.42903 60.1388 1.45025C58.8675 1.83934 57.9493 3.86967 57.9634 6.28909C57.9776 9.5928 58.4437 10.9864 58.8322 11.1775C59.1288 11.3189 59.4396 11.3897 59.7857 11.3897C60.5556 11.3897 61.502 11.0713 62.618 10.4276C64.6239 9.30276 66.0294 6.96114 66.3331 5.32697C66.4532 4.66906 66.4037 4.12435 66.1848 3.8626C65.867 3.47351 65.5421 3.29664 65.1112 3.29664C64.8287 3.29664 64.3484 3.37447 63.6704 3.74941C63.4231 3.88382 63.1406 3.95455 62.8581 3.95455C62.06 3.95455 61.389 3.40983 61.2124 2.63165C61.2124 2.6175 60.937 1.41487 60.379 1.41487ZM60.379 0C61.8481 0 62.4273 1.57757 62.5968 2.32038C62.625 2.45479 62.7451 2.53968 62.8652 2.53968C62.9075 2.53968 62.9499 2.52554 62.9923 2.50432C63.4302 2.26379 64.2354 1.88177 65.1112 1.88177C65.8387 1.88177 66.6156 2.14353 67.2866 2.97123C68.8758 4.89544 66.6863 9.76258 63.3101 11.6585C61.8269 12.5145 60.6827 12.8045 59.7857 12.8045C59.143 12.8045 58.6344 12.656 58.2177 12.4579C57.5962 12.1608 56.565 11.4109 56.5438 6.30323C56.5296 3.16223 57.8222 0.657916 59.7574 0.0919697C59.9764 0.0353751 60.1812 0.00708124 60.3719 0.00708124L60.379 0Z" fill="url(#paint3_linear_22295_41888)"/>
<path d="M58.0841 10.0882C54.263 9.68498 42.2629 18.4713 27.2328 14.9837C10.7901 11.1635 0.93716 12.8047 1.22675 21.4001C1.62934 33.4689 20.1768 38.2016 38.7385 33.575C59.3272 28.439 65.2884 10.8522 58.0912 10.0882H58.0841Z" fill="url(#paint4_linear_22295_41888)"/>
<path d="M57.8086 10.0815V11.4964C56.8693 11.4964 54.9976 12.218 52.8292 13.0528C48.2524 14.8143 41.9875 17.2266 34.4583 17.2266C31.9015 17.2266 29.3658 16.9366 26.915 16.3706C21.4623 15.1043 16.8078 14.4606 13.0785 14.4606C8.73473 14.4606 5.70469 15.3095 4.08726 16.9932C3.049 18.0685 2.57578 19.4975 2.63934 21.358C2.7241 23.9755 3.89656 27.6895 8.989 30.5051C12.9584 32.7052 18.6088 33.915 24.8808 33.915C29.3093 33.915 33.8509 33.3419 38.3924 32.21C53.1117 28.5385 59.9134 18.2241 59.5885 13.4772C59.4755 11.8501 58.5926 11.5742 57.9428 11.5035C57.9005 11.5035 57.8651 11.5035 57.8228 11.5035V10.0886M57.8228 10.0886C57.9146 10.0886 58.0064 10.0886 58.0912 10.1028C65.2884 10.8668 59.3272 28.4536 38.7385 33.5895C34.0204 34.7639 29.3023 35.3369 24.8879 35.3369C11.9272 35.3369 1.53045 30.4202 1.2338 21.4146C1.0431 15.6915 5.34448 13.0528 13.0856 13.0528C16.9773 13.0528 21.7378 13.7178 27.2399 14.9982C29.7402 15.5783 32.1557 15.8188 34.4653 15.8188C45.7238 15.8188 54.4255 10.0886 57.8228 10.0886Z" fill="url(#paint5_linear_22295_41888)"/>
<path d="M38.7309 33.575C25.177 36.9565 11.6231 35.3436 5.14626 29.5214C3.30281 21.683 19.6678 24.0176 39.5926 23.579C48.6969 23.3809 53.2596 17.0423 60.7252 15.875C59.2702 21.6972 52.073 30.25 38.7309 33.575Z" fill="url(#paint6_linear_22295_41888)"/>
<path d="M58.4933 17.877C56.4591 18.5562 54.5804 19.5961 52.6169 20.6856C48.9088 22.7442 45.0735 24.8736 39.6209 24.9938C37.7351 25.0363 35.7292 25.0575 33.4831 25.0575C31.2371 25.0575 29.21 25.0363 27.1758 25.0221C25.3253 25.008 23.5454 24.9867 21.8644 24.9938C17.224 24.9938 8.58595 24.9938 6.77782 27.2788C6.57299 27.5335 6.3399 27.958 6.44585 28.7786C10.3517 32.0469 17.0333 33.9145 24.8803 33.9145C29.3018 33.9145 33.8504 33.3415 38.3919 32.2096C44.1907 30.7665 49.3255 28.1348 53.2455 24.6118C55.5763 22.5107 57.4056 20.155 58.4933 17.877ZM60.7252 15.875C59.2702 21.6972 52.073 30.25 38.7309 33.575C34.0128 34.7493 29.3018 35.3223 24.8803 35.3223C16.6025 35.3223 9.36994 33.3132 5.14625 29.5214C3.90316 24.2227 10.9874 23.5719 21.8644 23.5719C25.3889 23.5719 29.3159 23.6426 33.4831 23.6426C35.4678 23.6426 37.509 23.6285 39.5926 23.579C48.6969 23.3809 53.2596 17.0423 60.7252 15.875Z" fill="url(#paint7_linear_22295_41888)"/>
<path d="M0.740551 21.761C0.825308 21.86 0.924191 21.959 1.02307 22.0439C2.63344 23.4164 5.27501 22.624 7.3021 20.1551C9.32919 17.6862 9.6329 14.8989 8.02253 13.5264C6.41216 12.154 3.77059 12.9464 1.7435 15.4153C0.903 16.434 0.323835 17.5942 0.0978184 18.6836C-0.149387 19.9146 0.0766249 21.0111 0.733487 21.761H0.740551Z" fill="url(#paint8_linear_22295_41888)"/>
<path d="M6.16476 14.262C5.15474 14.262 3.87634 15.0473 2.84514 16.3065C2.15296 17.1484 1.67267 18.0963 1.4961 18.9594C1.33365 19.7446 1.44666 20.4096 1.81394 20.827C1.85631 20.8765 1.89869 20.919 1.94813 20.9614C2.20946 21.1807 2.52024 21.2939 2.89458 21.2939C3.91165 21.2939 5.183 20.5087 6.2142 19.2494C7.68331 17.4596 8.07884 15.4151 7.11121 14.5945C6.84987 14.3752 6.5391 14.262 6.16476 14.262ZM6.16476 12.8472C6.85693 12.8472 7.49967 13.0665 8.0294 13.5192C9.6327 14.8917 9.33606 17.6789 7.30897 20.1479C5.94581 21.8033 4.31425 22.7088 2.89458 22.7088C2.2024 22.7088 1.55967 22.4895 1.02994 22.0367C0.923995 21.9518 0.832172 21.8528 0.740354 21.7537C0.0834923 21.0039 -0.142526 19.9074 0.10468 18.6764C0.323634 17.587 0.909866 16.4268 1.75037 15.4081C3.11353 13.7527 4.74509 12.8472 6.16476 12.8472Z" fill="url(#paint9_linear_22295_41888)"/>
<path d="M6.04974 14.9624C6.10624 15.401 5.85903 16.5895 4.77133 17.9195C3.68362 19.2424 2.57472 19.7022 2.14388 19.7163C2.08738 19.2777 2.33459 18.0892 3.42229 16.7593C4.51 15.4364 5.61889 14.9766 6.04974 14.9624Z" fill="#6C8CFF"/>
<path d="M15.6719 20.455C13.4659 19.918 11.9688 18.2824 12.3281 16.8017C12.6873 15.3211 14.7669 14.5561 16.973 15.0931C19.179 15.6301 20.6761 17.2657 20.3169 18.7464C19.9576 20.227 17.878 20.992 15.6719 20.455Z" fill="url(#paint10_linear_22295_41888)"/>
<path d="M16.7712 18.3574C15.8843 18.1415 15.2825 17.4833 15.4271 16.8872C15.5717 16.2912 16.408 15.983 17.295 16.1989C18.182 16.4148 18.7837 17.073 18.6391 17.6691C18.4945 18.2652 17.6582 18.5733 16.7712 18.3574Z" fill="#384970"/>
<path d="M37.7629 24.6545C38.0808 22.1643 35.3191 20.3816 30.7352 19.7944C26.1513 19.2073 18.3396 22.1643 23.651 24.2583C25.2331 24.8809 25.9253 25.3265 29.9865 26.7343C34.3515 28.2482 37.438 27.1446 37.7559 24.6545H37.7629Z" fill="url(#paint11_linear_22295_41888)"/>
<path d="M29.4702 21.1312C26.8922 21.1312 24.3777 22.0013 23.509 22.6238C23.6573 22.7087 23.8692 22.8149 24.1659 22.9351C24.6603 23.1261 25.0629 23.303 25.4937 23.4869C26.5037 23.9255 27.6409 24.4137 30.4519 25.3899C31.6244 25.7931 32.698 25.9983 33.6586 25.9983C34.4143 25.9983 36.1801 25.8497 36.3566 24.4632C36.3849 24.2227 36.4838 23.4798 35.2901 22.6663C34.2448 21.9589 32.6062 21.4424 30.5508 21.1807C30.2189 21.1382 29.8516 21.117 29.4631 21.117M29.4631 19.7021C29.901 19.7021 30.3319 19.7234 30.7274 19.78C35.3113 20.3671 38.0729 22.1499 37.7551 24.64C37.5362 26.352 36.0035 27.4061 33.6515 27.4061C32.585 27.4061 31.3489 27.1868 29.9858 26.7199C25.9245 25.3121 25.2324 24.8664 23.6503 24.2439C18.798 22.3338 24.8792 19.7021 29.4631 19.7021Z" fill="url(#paint12_linear_22295_41888)"/>
<defs>
<linearGradient id="paint0_linear_22295_41888" x1="43.9338" y1="9.52821" x2="39.4695" y2="19.7227" gradientUnits="userSpaceOnUse">
<stop stop-color="#99B4FF"/>
<stop offset="1" stop-color="#6C8CFF"/>
</linearGradient>
<linearGradient id="paint1_linear_22295_41888" x1="48.7393" y1="14.9623" x2="35.1713" y2="14.9623" gradientUnits="userSpaceOnUse">
<stop stop-color="#D2E2FF"/>
<stop offset="1" stop-color="#82A0FF"/>
</linearGradient>
<linearGradient id="paint2_linear_22295_41888" x1="63.1265" y1="2.90771" x2="59.3873" y2="11.2156" gradientUnits="userSpaceOnUse">
<stop stop-color="#99B4FF"/>
<stop offset="1" stop-color="#6C8CFF"/>
</linearGradient>
<linearGradient id="paint3_linear_22295_41888" x1="62.1871" y1="0" x2="62.1871" y2="12.8045" gradientUnits="userSpaceOnUse">
<stop stop-color="#D2E2FF"/>
<stop offset="1" stop-color="#82A0FF"/>
</linearGradient>
<linearGradient id="paint4_linear_22295_41888" x1="39.7433" y1="35.3632" x2="31.1244" y2="18.3673" gradientUnits="userSpaceOnUse">
<stop stop-color="#99B4FF"/>
<stop offset="1" stop-color="#6C8CFF"/>
</linearGradient>
<linearGradient id="paint5_linear_22295_41888" x1="31.1104" y1="35.3228" x2="31.1104" y2="10.0815" gradientUnits="userSpaceOnUse">
<stop stop-color="#D2E2FF"/>
<stop offset="1" stop-color="#82A0FF"/>
</linearGradient>
<linearGradient id="paint6_linear_22295_41888" x1="60.7252" y1="25.6022" x2="5.005" y2="25.6022" gradientUnits="userSpaceOnUse">
<stop stop-color="#EAF2FE"/>
<stop offset="0.93" stop-color="#C2D7FF"/>
</linearGradient>
<linearGradient id="paint7_linear_22295_41888" x1="9.93498" y1="37.8267" x2="57.5566" y2="10.3735" gradientUnits="userSpaceOnUse">
<stop stop-color="#C2D7FF"/>
<stop offset="1" stop-color="white"/>
</linearGradient>
<linearGradient id="paint8_linear_22295_41888" x1="2.61468" y1="14.1563" x2="8.5039" y2="25.9525" gradientUnits="userSpaceOnUse">
<stop stop-color="#EAF2FE"/>
<stop offset="0.93" stop-color="#C2D7FF"/>
</linearGradient>
<linearGradient id="paint9_linear_22295_41888" x1="9.05354" y1="17.778" x2="0.00579759" y2="17.778" gradientUnits="userSpaceOnUse">
<stop stop-color="#C2D7FF"/>
<stop offset="1" stop-color="white"/>
</linearGradient>
<linearGradient id="paint10_linear_22295_41888" x1="19.6827" y1="17.9272" x2="10.3524" y2="17.5182" gradientUnits="userSpaceOnUse">
<stop stop-color="white"/>
<stop offset="1" stop-color="#C2D7FF"/>
</linearGradient>
<linearGradient id="paint11_linear_22295_41888" x1="36.8445" y1="24.9161" x2="24.0427" y2="21.6038" gradientUnits="userSpaceOnUse">
<stop stop-color="#99B4FF"/>
<stop offset="1" stop-color="#6C8CFF"/>
</linearGradient>
<linearGradient id="paint12_linear_22295_41888" x1="33.0017" y1="28.7219" x2="27.274" y2="18.8116" gradientUnits="userSpaceOnUse">
<stop stop-color="#D2E2FF"/>
<stop offset="1" stop-color="#6C8CFF"/>
</linearGradient>
</defs>
</svg>
